<?xml version="1.0" standalone="no"?>
<!DOCTYPE svg PUBLIC "-//W3C//DTD SVG 20010904//EN"
 "http://www.w3.org/TR/2001/REC-SVG-20010904/DTD/svg10.dtd">
<svg version="1.0" xmlns="http://www.w3.org/2000/svg"
 width="437.000000pt" height="198.000000pt" viewBox="0 0 437.000000 198.000000"
 preserveAspectRatio="xMidYMid meet">
<metadata>
Created by potrace 1.15, written by Peter Selinger 2001-2017
</metadata>
<g transform="translate(0.000000,198.000000) scale(0.100000,-0.100000)"
fill="#ffffff" stroke="none">
<path d="M30 1430 l0 -370 135 0 135 0 -2 368 -3 367 -132 3 -133 3 0 -371z"/>
<path d="M597 1794 c-4 -4 -7 -171 -7 -371 l0 -363 140 0 140 0 -2 368 -3 367
-131 3 c-71 1 -133 -1 -137 -4z"/>
<path d="M1036 1789 c-27 -7 -86 -64 -86 -81 0 -4 -6 -13 -13 -20 -15 -15 -38
-98 -31 -110 3 -4 194 -8 425 -8 l421 0 -7 41 c-9 53 -32 109 -45 109 -6 0 -9
5 -8 11 2 6 -6 16 -17 22 -11 7 -23 16 -26 20 -3 5 -24 13 -45 17 -50 12 -529
11 -568 -1z"/>
<path d="M1784 1787 c-2 -7 -3 -58 -2 -113 l3 -99 423 -3 423 -2 -3 112 -3
113 -418 3 c-340 2 -418 0 -423 -11z"/>
<path d="M2796 1790 c-16 -5 -40 -22 -55 -38 -14 -15 -19 -19 -11 -8 15 21 15
21 -7 2 -48 -40 -58 -95 -58 -311 0 -145 4 -212 14 -242 8 -24 18 -43 23 -43
4 0 8 -5 8 -10 0 -18 53 -59 90 -70 19 -5 59 -10 88 -10 l52 0 -2 368 -3 367
-55 2 c-30 1 -68 -2 -84 -7z"/>
<path d="M2972 1688 l3 -113 268 -3 268 -2 -3 112 -3 113 -268 3 -268 2 3
-112z"/>
<path d="M3547 1794 c-4 -4 -7 -171 -7 -371 l0 -363 140 0 140 0 -2 368 -3
367 -131 3 c-71 1 -133 -1 -137 -4z"/>
<path d="M4110 1430 l0 -370 130 0 130 0 0 370 0 370 -130 0 -130 0 0 -370z"/>
<path d="M412 1565 c-13 -13 -22 -26 -20 -29 2 -3 -7 -12 -19 -21 -20 -14 -21
-22 -23 -195 0 -108 3 -180 9 -180 11 0 71 74 71 88 0 6 9 8 20 5 11 -3 20
-11 20 -19 0 -7 9 -18 21 -24 11 -7 18 -14 15 -17 -8 -9 14 -33 30 -33 11 0
14 32 14 170 0 113 -4 170 -11 170 -5 0 -8 4 -4 9 3 6 0 13 -7 18 -7 4 -19 20
-27 35 -8 15 -17 25 -21 23 -5 -3 -10 2 -14 10 -8 21 -27 17 -54 -10z"/>
<path d="M905 1527 c-3 -7 -4 -114 -3 -237 l3 -225 138 -3 138 -3 -3 128 -3
128 150 0 150 0 -3 -127 -3 -128 141 0 140 0 -2 238 -3 237 -418 3 c-332 2
-419 0 -422 -11z"/>
<path d="M2070 1300 l0 -240 140 0 140 0 -2 238 -3 237 -137 3 -138 3 0 -241z"/>
<path d="M3862 1428 l3 -113 100 0 100 0 0 110 0 110 -103 3 -103 3 3 -113z"/>
<path d="M2970 1170 l0 -110 270 0 271 0 -3 108 -3 107 -267 3 -268 2 0 -110z"/>
<path d="M926 854 c-3 -8 -6 -173 -6 -364 0 -335 1 -350 19 -360 11 -5 74 -10
140 -10 l121 0 -2 373 -3 372 -131 3 c-113 2 -132 0 -138 -14z"/>
<path d="M1250 754 l0 -115 123 3 122 3 0 -150 0 -150 -123 3 -123 3 3 -113 3
-113 178 -3 c116 -2 177 1 177 8 0 5 11 10 24 10 14 0 41 17 69 44 62 61 70
104 65 345 -4 167 -7 191 -27 234 -12 27 -30 51 -39 55 -9 3 -23 12 -30 19
-25 24 -89 33 -254 33 l-168 0 0 -116z"/>
<path d="M1934 857 c-32 -12 -91 -73 -114 -116 -15 -28 -30 -292 -16 -284 5 3
6 -18 2 -48 -7 -61 8 -159 27 -171 6 -4 8 -8 4 -8 -4 0 9 -18 29 -39 40 -44
117 -75 175 -69 l34 3 0 370 0 370 -55 2 c-30 1 -69 -3 -86 -10z"/>
<path d="M2114 857 c-2 -7 -3 -58 -2 -113 l3 -99 113 -3 113 -3 -3 113 -3 113
-108 3 c-83 2 -109 0 -113 -11z"/>
<path d="M2378 864 c-5 -4 -8 -170 -8 -370 0 -321 2 -363 16 -368 26 -10 104
-7 104 4 0 6 9 10 20 10 10 0 35 13 53 30 19 16 37 27 40 24 2 -3 13 16 23 43
16 41 19 78 19 263 0 192 -2 219 -19 250 -10 19 -25 39 -33 43 -7 5 -11 12 -8
18 4 5 1 9 -5 9 -6 0 -24 9 -39 21 -30 22 -148 39 -163 23z"/>
<path d="M2819 860 c-33 -9 -106 -81 -121 -118 -16 -38 -23 -363 -9 -437 6
-33 16 -62 21 -63 6 -2 8 -8 4 -13 -3 -5 0 -9 5 -9 6 0 11 -6 11 -12 1 -17 68
-68 90 -68 9 0 21 -5 27 -11 5 -5 32 -9 59 -7 l49 3 3 364 c2 285 -1 366 -10
373 -16 10 -94 9 -129 -2z"/>
<path d="M2994 857 c-2 -7 -3 -58 -2 -113 l3 -99 268 -3 268 -2 -3 112 -3 113
-263 3 c-212 2 -263 0 -268 -11z"/>
<path d="M3248 428 l-3 -73 -127 -3 -128 -3 0 -109 c0 -105 1 -110 23 -115 12
-3 132 -4 267 -3 l245 3 3 188 2 187 -139 0 -140 0 -3 -72z"/>
<path d="M2117 343 c-4 -3 -7 -53 -7 -109 0 -122 -7 -117 135 -112 l90 3 3
113 3 112 -109 0 c-60 0 -112 -3 -115 -7z"/>
</g>
</svg>
